<?xml version="1.0" encoding="UTF-8"?>
<svg width="1200pt" height="1200pt" version="1.1" viewBox="0 0 1200 1200" xmlns="http://www.w3.org/2000/svg">
 <path d="m465.71 422.11c1.6406-4.4531 3.2812-8.9062 4.875-13.312 2.4375-6.5156 5.0156-13.453 7.7812-20.812h-0.046875c-46.828-19.453-88.406-49.641-121.4-88.172-21.516-25.5-33.75-57.516-34.641-90.891 0.51562-33.469 13.078-65.625 35.391-90.609 27.281-32.578 70.828-62.203 131.58-85.828l0.046874 0.046875c6.0469-2.3906 12.938 0 16.219 5.625 3.3281 5.625 2.0625 12.797-2.9531 16.969-21.703 20.438-37.875 46.031-47.062 74.391-6.375 19.219-8.2969 39.656-5.625 59.766 2.4375 18.234 10.453 35.297 22.922 48.891 12.188 12.609 27.469 21.797 44.344 26.766 30.469 9.7969 61.406 18.094 92.719 24.797 27.422 5.8594 55.266 9.6562 83.25 11.344h0.84375c66.562 9.4688 130.82 30.891 189.74 63.281 21.75 12.188 40.922 28.453 56.531 47.906 14.906 18.516 21.891 42.234 19.406 65.906-2.0625 15.328-7.3125 30.047-15.516 43.172-26.672 44.25-62.438 82.312-104.95 111.7-43.125 29.391-89.062 54.469-137.06 74.906-0.60938 13.828-0.98438 27.891-1.1719 42.141v-0.046875c0 135.19 13.266 270.05 39.609 402.61 1.125 5.9062-1.875 11.859-7.3594 14.438-5.4375 2.5781-11.906 1.1719-15.844-3.4219-47.016-57.797-83.859-123.14-109.03-193.26-28.547-77.625-49.828-157.69-63.609-239.26-32.391 55.359-58.734 114-78.703 174.94-21.562 66.141-33.328 135.05-34.922 204.61-0.14062 6.6562-5.2031 12.188-11.812 12.938-6.6094 0.70312-12.75-3.5625-14.344-10.078-15.891-63.281-25.969-127.87-30.094-193.03-3.1875-53.203-1.7812-106.59 4.125-159.56-11.344 2.0156-22.828 3.0469-34.359 3.0469-62.531 0-121.13-30.328-157.22-81.375-36.047-51.047-45.094-116.44-24.188-175.36 20.859-58.875 69.047-104.02 129.19-120.94 60.188-16.922 124.82-3.6094 173.39 35.766zm334.45 426.56 42.375 42.422c0.375 0.375 0.70312 0.65625 1.0781 0.98438 9.3281 8.2969 23.438 7.875 32.25-0.98438l86.719-86.719c2.625-2.4844 4.125-5.9062 4.1719-9.5156 0.046875-3.5625-1.3594-7.0312-3.9375-9.5625-2.5312-2.5781-6-3.9844-9.5625-3.9375-3.6094 0.046875-7.0312 1.5469-9.5156 4.1719l-84.609 84.609-40.172-40.266c-5.2031-5.2031-13.641-5.2031-18.797 0-5.2031 5.2031-5.2031 13.641 0 18.844zm-483.05-389.53c-5.3438 0-10.453 2.1562-14.25 5.9531-3.75 3.75-5.9062 8.9062-5.9062 14.25v44.578h-44.672c-5.2969 0-10.406 2.1562-14.203 5.9062l-0.09375 0.09375h0.046875c-3.7969 3.75-5.9531 8.8594-5.9531 14.203v54.797c0 5.3438 2.1562 10.5 5.9531 14.297 3.75 3.7969 8.8594 5.9062 14.203 5.9062h44.625v44.672c0 5.3438 2.1094 10.5 5.9062 14.297s8.9062 5.9531 14.297 5.9531h54.75c4.7812-0.046875 9.375-1.7344 13.031-4.7812 0.42188-0.375 0.84375-0.75 1.2188-1.1719 3.7969-3.75 5.9531-8.9062 5.9531-14.297v-44.625h44.578c5.3438 0 10.5-2.1094 14.297-5.9062s5.9062-8.9062 5.9062-14.297v-54.797c0-5.2969-2.1094-10.406-5.9062-14.203l-0.09375-0.09375 0.046875 0.046875c-3.7969-3.7969-8.9062-5.9531-14.25-5.9531h-44.578v-44.578c0-4.8281-1.7344-9.4688-4.875-13.078-0.32812-0.46875-0.70312-0.89062-1.0781-1.2656-3.7969-3.7969-8.9062-5.9531-14.297-5.9531zm48.375 26.625h-41.953v51.516c0 3.5625-1.4062 6.9375-3.8906 9.4219-2.4844 2.5312-5.8594 3.9375-9.4219 3.9375h-51.469v41.906h51.469c3.5625 0 6.9375 1.4062 9.4219 3.8906 2.4844 2.5312 3.8906 5.9062 3.8906 9.4219v51.516h41.953v-51.516c0-3.5156 1.4062-6.8906 3.8906-9.4219 2.4844-2.4844 5.9062-3.8906 9.4219-3.8906h51.516v-41.906h-51.516c-3.5156 0-6.9375-1.4062-9.4219-3.9375-2.4844-2.4844-3.8906-5.8594-3.8906-9.4219zm40.969 268.03v0.046875c-6.7031 54.75-8.3906 110.02-5.0625 165.1 2.0156 33.141 5.6719 66.188 11.062 98.953 6.1875-40.688 15.656-80.766 28.312-119.91 24.422-74.344 57.938-145.36 99.797-211.45 2.9062-4.7344 8.4375-7.125 13.875-6.0469 5.4375 1.125 9.6562 5.4844 10.5 10.969 13.547 91.922 36.422 182.21 68.25 269.48 18.422 49.828 42.422 97.453 71.531 141.89-20.531-116.58-30.656-234.71-30.328-353.06 0.1875-14.766 0.60938-29.297 1.2188-43.594-4.2656-4.0312-3.1875-7.7812 0.60938-12.422l-0.046875-0.046875c3.6562-90.281 19.594-179.72 47.438-265.74 1.4531-5.3906 6.1406-9.2812 11.719-9.75 83.391-6.9844 115.36 16.875 118.55 54.703 4.3594 51.891-57.984 131.21-105 183.28 26.016-13.125 51.047-28.125 74.906-44.812 39.469-27.281 72.75-62.625 97.547-103.73 6.2344-9.8438 10.266-20.953 11.859-32.531 1.6406-16.875-3.4688-33.75-14.203-46.922-13.547-16.641-30.141-30.562-48.891-41.016-55.641-30.516-116.3-50.719-179.06-59.578-29.109-1.7812-58.078-5.7188-86.578-11.812-32.203-6.8906-63.984-15.375-95.344-25.453-21.141-6.2812-40.312-18-55.641-33.938-16.219-17.484-26.625-39.516-29.906-63.141-3.2812-24.094-1.0312-48.609 6.5625-71.719 4.5938-14.344 10.828-28.172 18.609-41.156-26.766 13.828-50.719 32.484-70.594 55.031-18.281 20.203-28.688 46.312-29.297 73.547 0.9375 27.328 11.109 53.578 28.828 74.391 25.172 31.875 66.234 61.312 122.02 85.031h0.1875c6.8438 2.5781 10.312 10.266 7.7344 17.109-3.7969 10.125-7.875 20.812-12.094 32.344-3.0469 8.25-6 16.266-8.8594 24.094 43.688 48 60.234 114.8 44.016 177.61-16.172 62.859-62.906 113.3-124.36 134.26zm55.312-299.44c-55.969-55.922-143.58-64.547-209.34-20.578-65.766 43.922-91.312 128.21-61.078 201.28 30.281 73.078 107.95 114.56 185.53 99.141 77.578-15.422 133.45-83.531 133.45-162.61 0.046874-43.969-17.438-86.156-48.562-117.23zm414.1 572.72c3.5156 1.5938 7.5469 1.5938 11.062 0 32.109-14.016 62.016-32.578 88.828-55.172 25.969-22.219 46.5-50.109 60.047-81.516 8.1562-18.703 12.281-38.859 12.141-59.25v-113.58c-0.046874-7.1719-5.6719-13.031-12.844-13.266-52.453-1.875-103.22-19.359-145.69-50.25-4.6875-3.5156-11.109-3.5625-15.797-0.14063-42.281 30.75-92.672 48.234-144.84 50.344h-0.5625c-7.3594 0-13.312 5.9531-13.312 13.312v113.58c-0.14063 20.438 3.9844 40.641 12.188 59.297 13.5 31.406 34.031 59.297 59.953 81.562 26.812 22.547 56.719 41.156 88.828 55.172zm-71.344-75.141c23.25 19.641 49.125 35.953 76.875 48.469 27.75-12.516 53.625-28.781 76.875-48.422 22.922-19.641 41.109-44.25 53.062-72 6.7969-15.375 10.219-32.062 9.9844-48.891v-101.06 0.046876c-50.109-4.0781-98.297-21.047-139.87-49.266-41.578 28.266-89.812 45.234-139.97 49.312v101.06-0.046874c-0.23438 16.828 3.1875 33.516 10.031 48.891 11.953 27.75 30.094 52.359 53.016 72zm-152.72-910.03c-57.375 0-106.78 40.547-117.98 96.797-11.203 56.297 18.938 112.64 71.953 134.58 53.016 21.984 114.14 3.4219 146.02-44.297 31.875-47.672 25.641-111.28-14.953-151.87-22.547-22.594-53.109-35.25-85.031-35.203zm66.281 54.094c-31.594-31.594-81.141-36.469-118.27-11.672-37.172 24.844-51.609 72.422-34.5 113.72 17.109 41.297 60.984 64.734 104.77 56.016 43.828-8.7188 75.422-47.156 75.422-91.828 0-24.844-9.8438-48.703-27.422-66.234zm-13.406 568.69c43.078-44.578 126.98-137.95 122.68-189.47-1.7812-21.141-23.812-34.406-81.094-30.984-22.547 71.578-36.516 145.55-41.578 220.4z" fill="#2f67b2" fill-rule="evenodd"/>
</svg>
