<?xml version="1.0" encoding="UTF-8"?>
<svg width="1200pt" height="1200pt" version="1.1" viewBox="0 0 1200 1200" xmlns="http://www.w3.org/2000/svg">
 <path d="m761.86 421.95c-3.5156-3.5156-8.2852-5.4883-13.258-5.4883-4.9727 0-9.7383 1.9727-13.254 5.4883l-150.99 150.99c-20.988-11.855-46.652-11.855-67.637 0l-98.551-98.551c-4.7617-4.5977-11.598-6.3477-17.984-4.5938-6.3867 1.75-11.375 6.7383-13.125 13.125-1.75 6.3828-0.003906 13.219 4.5977 17.98l98.551 98.551h-0.003906c-12.059 21.434-11.84 47.66 0.57422 68.891 12.418 21.23 35.164 34.281 59.758 34.281s47.344-13.051 59.758-34.281c12.414-21.23 12.633-47.457 0.57422-68.891l150.99-150.99c3.5156-3.5156 5.4883-8.2812 5.4883-13.254 0-4.9727-1.9727-9.7422-5.4883-13.258zm-211.32 243.05c-8.418 0-16.484-3.3438-22.438-9.293-5.9492-5.9492-9.2891-14.023-9.2891-22.438 0-8.4141 3.3438-16.484 9.2969-22.434 5.9492-5.9453 14.023-9.2891 22.438-9.2852 8.4141 0 16.484 3.3477 22.43 9.2969 5.9492 5.9531 9.2891 14.023 9.2852 22.441-0.003907 8.4102-3.3516 16.473-9.3008 22.418-5.9453 5.9492-14.012 9.2891-22.422 9.293zm502.2 6.7734h-30.488v-44.211c16.707-5.9023 29.617-19.387 34.789-36.332 5.1719-16.945 1.9922-35.34-8.5703-49.566-10.562-14.223-27.25-22.59-44.969-22.539h-22.188c-22.156-84.773-68.934-161.08-134.43-219.29-65.496-58.207-146.77-95.703-233.56-107.75v-75.387h10.426c18.195 0 35.004-9.707 44.102-25.461 9.0977-15.758 9.0977-35.168 0-50.926-9.0977-15.758-25.906-25.461-44.102-25.461h-146.39c-18.195 0-35.008 9.7031-44.102 25.461-9.0977 15.758-9.0977 35.168 0 50.926 9.0938 15.754 25.906 25.461 44.102 25.461h10.398v75.449c-115.18 16.32-219.41 77.062-290.38 169.24-70.973 92.176-103.06 208.46-89.395 323.99 13.664 115.53 71.996 221.12 162.51 294.2l-48.539 142.71c-1.9453 5.7227-1.0117 12.035 2.5078 16.953 3.5195 4.9141 9.1953 7.832 15.242 7.832h458.9c4.3984 11.203 12.059 20.824 21.996 27.613 9.9336 6.7891 21.684 10.434 33.715 10.461h280.79c15.914 0 31.172-6.3203 42.426-17.57 11.254-11.254 17.574-26.516 17.574-42.43v-411.02c-0.015625-11.234-4.4844-22.004-12.426-29.945-7.9453-7.9414-18.715-12.406-29.949-12.418zm4.8516 42.363v31.875h-325.75v-31.887c0.007812-2.6836 2.1797-4.8555 4.8633-4.8633h316.04c2.6797 0.007812 4.8477 2.1836 4.8477 4.8633zm-290.41-86.574v44.199h-30.477c-11.23 0.015625-21.996 4.4805-29.938 12.422-7.9453 7.9414-12.41 18.711-12.426 29.941v210.99c-58.965 29.035-125.34 39.527-190.39 30.102-65.051-9.4258-125.71-38.332-174.02-82.91-48.297-44.578-81.961-102.74-96.559-166.82-14.598-64.086-9.4453-131.09 14.781-192.19 24.223-61.098 66.387-113.43 120.93-150.1 54.547-36.668 118.92-55.957 184.64-55.324 65.723 0.62891 129.71 21.152 183.55 58.859 53.832 37.711 94.984 90.84 118.03 152.39h-69.387c-17.719-0.050781-34.406 8.3164-44.969 22.539-10.562 14.227-13.746 32.621-8.5703 49.566 5.1719 16.945 18.082 30.43 34.789 36.332zm-35.34 155.94h325.75v286.77h-325.75zm72.836-111.74 0.003906-40.738h180.07v40.738zm217.27-96.688h0.003907c-0.003907 4.8906-1.9531 9.582-5.4102 13.039-3.457 3.4609-8.1484 5.4062-13.039 5.4102h-217.57c-6.5938 0-12.684-3.5156-15.98-9.2227-3.293-5.7109-3.293-12.742 0-18.449 3.2969-5.7109 9.3867-9.2266 15.98-9.2266h217.57c4.8906 0.007812 9.582 1.9531 13.039 5.4102 3.457 3.4609 5.4062 8.1484 5.4102 13.039zm-558.01-509.3c0.007812-7.4102 6.0117-13.418 13.426-13.422h146.39c7.4141 0 13.426 6.0078 13.426 13.422 0 7.4141-6.0117 13.426-13.426 13.426h-146.39c-7.4141-0.007813-13.418-6.0117-13.426-13.426zm61.324 50.926h50.562v71.738c-8.3867-0.47656-16.801-0.78906-25.289-0.78906-8.4883 0-16.914 0.28906-25.273 0.76172zm-382.85 516.57c0-98.266 35.453-193.24 99.844-267.47 64.395-74.23 153.41-122.74 250.69-136.62 97.285-13.879 196.31 7.8047 278.89 61.066 82.582 53.262 143.18 134.53 170.66 228.88h-47.688c-23.004-69.434-66.449-130.3-124.64-174.61-58.195-44.316-128.42-70.012-201.47-73.723-73.055-3.707-145.52 14.742-207.91 52.934-62.383 38.191-111.77 94.34-141.69 161.09-29.918 66.746-38.969 140.98-25.969 212.96 13.004 71.98 47.453 138.36 98.832 190.42 51.375 52.062 117.29 87.387 189.09 101.34 71.805 13.957 146.15 5.8867 213.29-23.145v48.852c-82.66 31.113-173.18 34.57-257.97 9.8594-84.797-24.715-159.29-76.266-212.29-146.91-53-70.652-81.656-156.59-81.66-244.91zm159.7 369.78c56.945 38.316 121.97 62.949 190.01 71.98 68.039 9.0273 137.25 2.207 202.21-19.93v54.477l-428.45-0.003906zm733 144.6-280.79-0.003906c-5.9648 0-11.691-2.3672-15.91-6.5898-4.2188-4.2188-6.5898-9.9414-6.5898-15.91v-17.375h325.75v17.414c-0.007813 5.9531-2.3789 11.66-6.5898 15.871-4.2109 4.2109-9.918 6.582-15.871 6.5898zm-36.363-272.65h-52.176v-52.164c0-4.9727-1.9766-9.7422-5.4922-13.258s-8.2852-5.4922-13.258-5.4922h-66.25c-4.9727 0-9.7422 1.9766-13.258 5.4922s-5.4922 8.2852-5.4922 13.258v52.164h-52.16c-4.9727 0-9.7422 1.9766-13.262 5.4922-3.5156 3.5156-5.4883 8.2852-5.4883 13.258v66.25c0 4.9727 1.9727 9.7422 5.4883 13.258 3.5195 3.5156 8.2891 5.4922 13.262 5.4922h52.199v52.199c0 4.9727 1.9766 9.7422 5.4922 13.258s8.2852 5.4922 13.258 5.4922h66.25c4.9727 0 9.7422-1.9766 13.258-5.4922s5.4922-8.2852 5.4922-13.258v-52.199h52.137c4.9727 0 9.7422-1.9766 13.258-5.4922 3.5156-3.5156 5.4922-8.2852 5.4922-13.258v-66.25c0-4.9727-1.9766-9.7422-5.4922-13.258-3.5156-3.5156-8.2852-5.4922-13.258-5.4922zm-18.75 66.25h-52.176c-4.9727 0-9.7422 1.9766-13.258 5.4922-3.5156 3.5156-5.4922 8.2852-5.4922 13.258v52.199h-28.75v-52.199c0-4.9727-1.9766-9.7422-5.4922-13.258-3.5156-3.5156-8.2852-5.4922-13.258-5.4922h-52.16v-28.75h52.199c4.9727 0 9.7422-1.9766 13.258-5.4922 3.5156-3.5156 5.4922-8.2852 5.4922-13.258v-52.164h28.75v52.164c0 4.9727 1.9766 9.7422 5.4922 13.258 3.5156 3.5156 8.2852 5.4922 13.258 5.4922h52.137z" fill="#2f67b2"/>
</svg>
