<?xml version="1.0" encoding="UTF-8"?>
<svg width="1200pt" height="1200pt" version="1.1" viewBox="0 0 1200 1200" xmlns="http://www.w3.org/2000/svg">
 <path d="m428.16 412.44c36.711 0.03125 71.926-14.527 97.898-40.469s40.57-61.145 40.582-97.852c0.011719-36.711-14.566-71.918-40.523-97.875-25.961-25.957-61.168-40.535-97.879-40.527-36.707 0.011719-71.906 14.609-97.852 40.582-25.941 25.973-40.5 61.191-40.465 97.898 0.0625 36.645 14.645 71.77 40.559 97.68 25.91 25.914 61.035 40.496 97.68 40.562zm0-246.6c28.645 0 56.113 11.379 76.367 31.633s31.633 47.723 31.633 76.367c0 28.645-11.379 56.113-31.633 76.367-20.254 20.254-47.723 31.633-76.367 31.633-28.645 0-56.113-11.379-76.367-31.633-20.254-20.254-31.633-47.723-31.633-76.367 0-28.645 11.379-56.113 31.633-76.367 20.254-20.254 47.723-31.633 76.367-31.633z" fill="#06c"/>
 <path d="m936 274.2c0.03125-36.723-14.535-71.953-40.496-97.926-25.961-25.977-61.18-40.562-97.902-40.555-36.727 0.011719-71.938 14.621-97.883 40.613-25.945 25.988-40.492 61.227-40.438 97.949 0.050781 36.723 14.703 71.918 40.723 97.832 26.02 25.914 61.273 40.422 97.996 40.328 36.602-0.12891 71.664-14.742 97.523-40.645 25.863-25.906 40.414-60.996 40.477-97.598zm-246.6 0c0-28.645 11.379-56.113 31.633-76.367 20.254-20.254 47.727-31.633 76.367-31.633 28.645 0 56.113 11.379 76.367 31.633 20.254 20.254 31.633 47.723 31.633 76.367s-11.379 56.113-31.633 76.367-47.723 31.633-76.367 31.633c-28.578-0.09375-55.957-11.516-76.133-31.758-20.176-20.246-31.504-47.66-31.504-76.242z" fill="#06c"/>
 <path d="m984 456c-13.848-3.8672-27.969-6.6758-42.238-8.3984-95-14.641-191.68-14.641-286.68 0-11.551 1.918-22.395 6.8438-31.438 14.277l-3.1211 2.5195c-5.2539 1.8945-9.9258 5.1211-13.559 9.3633l-6.2383 4.9219c-7.8008-13.559-12.961-15.238-16.801-16.441v-0.003907c-1.8203-0.75391-3.5859-1.6367-5.2812-2.6367-10.207-5.918-21.379-9.9844-33-12-68.73-11.492-138.59-14.715-208.08-9.6016-19.32-29.762-62.281-36-92.16-23.16-8.6133 3.0234-15.961 8.8594-20.855 16.562-4.8984 7.707-7.0625 16.836-6.1445 25.918-12 15.121-30.602 57.238-65.52 182.52-24 84-48 184.44-48 208.32 0 18.719 12 34.441 35.16 44.281 28.477 11.336 59.961 12.648 89.281 3.7188l-12 145.68c-0.33594 4.1836 1.0938 8.3125 3.9453 11.391s6.8594 4.8242 11.055 4.8086h338.76c4.1953 0.042969 8.2109-1.7031 11.043-4.8008 2.8711-3.0703 4.3086-7.2109 3.957-11.398l-12-142.56c16.305 4.7891 33.41 6.2148 50.281 4.1992l-11.039 138.36c-0.35156 4.1875 1.0898 8.3281 3.9609 11.398 2.8281 3.0977 6.8438 4.8438 11.039 4.8008h338.88c4.1953 0.015626 8.2031-1.7305 11.055-4.8086 2.8516-3.0781 4.2812-7.207 3.9453-11.391l-12-145.68c29.32 8.9297 60.805 7.6172 89.281-3.7188 22.68-9.8398 35.16-25.559 35.16-44.281 0-24-21-124.56-40.441-204-43.918-180-60.598-185.4-70.199-188.16zm-443.28 20.879c8.2578 1.5078 16.184 4.4766 23.402 8.7617 2.6211 1.5508 5.3477 2.9141 8.1602 4.0781 1.832 2.168 3.4023 4.5469 4.6797 7.082l-127.92 100.44-92.277-130.68c61.512-3.1602 123.18 0.29688 183.96 10.32zm-291.72 550.8 12.602-156.96 14.281-180h-0.003906c0.33203-3.9609-0.92188-7.8906-3.4844-10.93-2.5664-3.0391-6.2344-4.9336-10.195-5.2695-3.9727-0.29688-7.9062 0.98438-10.938 3.5664-3.0352 2.5859-4.9258 6.2617-5.2617 10.234l-13.801 173.28c-18.121 12-54.84 13.801-80.039 3-5.1602-2.2812-17.16-8.3984-17.16-16.801 0-32.16 65.762-286.92 97.559-356.64l117.6 232.92v-0.003906c9.0469 17.684 22.797 32.527 39.734 42.898 16.934 10.375 36.402 15.879 56.266 15.902 13.703 0.074219 27.289-2.5781 39.961-7.8008l47.039-19.078 9.4805 117.72 12 153.6zm378.36-154.92c-18.789 3.7266-38.293 0.97656-55.32-7.8008l-9.7188-120.96 77.879-31.68zm420-8.1602c-25.199 10.801-61.922 9.1211-80.039-3l-13.32-173.28c-0.33594-3.9727-2.2266-7.6484-5.2617-10.234-3.0312-2.582-6.9648-3.8633-10.938-3.5664-3.9844 0.30469-7.6797 2.1875-10.27 5.2305-2.5938 3.0391-3.8633 6.9883-3.5312 10.969l14.281 180 12 156.96h-305.16l26.879-336.96v-1.5586c-0.042969-1.7695-0.41016-3.5195-1.0781-5.1602-0.73438-1.6172-1.7031-3.1133-2.8828-4.4414-1.1914-1.0547-2.5234-1.9414-3.9609-2.6367h-0.96094 0.003906c-1.5234-0.62891-3.1523-0.95703-4.8008-0.96094h-2.7617c-1.1523-0.17188-2.3242-0.17188-3.4805 0l-176.28 72h0.003906c-17.98 7.1836-37.992 7.4023-56.125 0.60937-18.133-6.793-33.078-20.102-41.914-37.332l-129.36-255.24c-1.0781-2.5195-3.7188-8.6406 8.8789-14.281 16.68-7.4414 47.039-5.0391 56.641 15.719l0.003906 0.003906c0.39062 0.82422 0.83203 1.625 1.3164 2.3984l118.32 168c2.3867 3.332 6.0273 5.543 10.082 6.1211 4.2422 0.74219 8.6016-0.35156 12-3l177.48-140.28c2.9258-1.4336 5.7031-3.1641 8.2773-5.1602 5.0547-4.4688 11.242-7.457 17.883-8.6406 91.977-14.16 185.58-14.16 277.56 0 20.762 3.2383 30.719 5.3984 36 6.7188 24.961 29.879 92.52 325.2 92.52 364.2-0.35938 8.4023-12.359 14.523-17.52 16.805z" fill="#06c"/>
</svg>
