<?xml version="1.0" encoding="UTF-8"?>
<svg width="1200pt" height="1200pt" version="1.1" viewBox="0 0 1200 1200" xmlns="http://www.w3.org/2000/svg">
 <path d="m1200 141.04-113.36 105.45c-35.852 37.961-73.285 73.812-105.45 112.3v0.003906c-69.129 76.02-133.41 156.32-192.44 240.42-58.875 83.078-111.06 170.7-156.07 262.04-21.738 44.457-41.098 90.043-57.996 136.56-8.4375 23.199-15.816 45.871-22.672 69.07v-0.003906c-6.0703 20.59-10.824 41.547-14.234 62.742l-207.21-4.7461c-0.76172-9.0508-2.1719-18.035-4.2148-26.887-2.6719-11.609-6.0195-23.051-10.02-34.273-7.0195-24.551-15.469-48.668-25.309-72.23-21.266-48.727-46.48-95.629-75.395-140.25-30.102-45.902-63.215-89.762-99.121-131.28-35.324-41.652-75.395-81.195-116.52-122.32l56.945-73.812 24.254 15.816c41.652 28.473 82.25 57.996 121.27 90.156h-0.003906c47.551 38.797 92.305 80.902 133.92 126.01 31.086 33.516 60.305 68.719 87.523 105.45 15.816-30.578 33.215-60.633 52.723-90.156 57.617-92.723 122.31-180.86 193.5-263.62 70.258-82.344 145.81-160.02 226.19-232.51 39.016-36.906 81.195-70.648 121.79-105.45h2.6367l122.32-99.121 28.473 35.324z" fill="#2f67b2"/>
</svg>
