<?xml version="1.0" encoding="UTF-8"?>
<svg width="1200pt" height="1200pt" version="1.1" viewBox="0 0 1200 1200" xmlns="http://www.w3.org/2000/svg">
 <path d="m51.281 1023.4h126.28c8.4375 32.344 34.875 66.75 79.219 75.375 97.969 24.281 202.97 29.719 307.97 44.438 37.219 4.7812 68.062 8.8125 110.72 13.734 25.781 4.3125 53.344-9.2812 51.281-35.062 54.562-3.1875 173.72-32.344 123.47-92.344 3.375-2.0156 6.6562-4.125 9.8906-6.1875h288.56c7.7812 0 14.062-6.2812 14.062-14.062s-6.2812-14.062-14.062-14.062h-251.26c74.438-64.641 117.84-159.1 117.84-259.97-7.0781-62.062-254.72-60.938-336.84-63.281-82.078 2.3438-329.9 1.3594-336.84 63.281 0 76.688 25.219 150.24 70.734 209.72-32.25-13.594-65.344-27.188-96.844-40.688-38.672-16.688-87.844-6.75-115.88 24.75-7.9688-16.406-22.031-27.469-24.281-45.188-2.5781-18.281-29.859-14.953-27.938 3.4219 3 22.688 14.344 33.656 24.234 49.359-18.75-12.562-33.281-30.141-56.438-34.406-18.234-3-23.203 24-5.0625 27.656 13.594 2.3906 27.938 17.578 41.156 26.766-13.031 1.5-21.469 0.84375-34.594-3.6562-7.3125-2.5312-15.375 1.3594-17.906 8.7188-6.1875 21.984 28.969 23.062 41.156 23.812 10.734 0 21.844-1.8281 36.75-4.3125-1.0781 4.5469-1.7344 9.2344-2.0156 13.969l-123.37 0.09375c-18.469 0.28125-18.469 27.844 0 28.125zm751.03 54.516c-23.438 8.7188-55.594 14.719-91.125 17.062-10.5-8.3438-19.688-11.438-30.469-17.531 50.109-0.32812 98.156-11.531 142.97-33.328 7.5 4.9688 10.312 9.2812 10.312 11.719 0 3.5625-6.6094 12.797-31.641 22.125zm45.797-80.25c-66.984 45.422-151.92 61.969-231.19 45.375-44.625-24.328-92.062-49.125-140.53-70.359-60.188-53.062-97.594-127.13-105.19-206.9 14.109 5.7656 33.562 10.688 58.922 15.281 1.8281 0.75 3.75 1.0312 5.625 0.98438 149.68 22.031 403.6 28.875 549.94-16.219-8.9062 94.031-58.969 179.16-137.58 231.89zm-344.68-235.13c35.062-4.2188 55.969-2.8594 80.531-0.046875 12.797-0.375 18.797-4.875 26.438-8.8125 16.031-7.4062 37.688-6.4688 54.656-1.7812 10.734 2.5312 22.875 5.3438 36.094 3.6094 12.469-1.8281 20.25-6.5625 32.953-6.0938 11.766 0 21.797 2.6719 25.688 5.3438 3.6094 2.5781 6.1875 5.0625 12.938 7.2188 9.2812 2.7188 18.891 1.5 27.891 0.84375 13.922-1.0312 29.25-0.60938 43.406 0.70312-100.08 9.6094-241.5 9.2812-340.55-0.9375zm-39-49.922c138.94-16.406 395.21-24.75 519.71 22.688-6.7969 4.0781-25.125 12-71.766 19.688-23.062-20.156-81.656-21.984-113.81-20.25-5.4375 0.375-13.969 1.4062-17.719 0.28125-20.812-17.109-56.906-16.078-83.297-7.4062-12.75 1.6875-27.938-4.4062-41.625-6.2812-18-2.8125-42.281-0.75-58.219 7.3125-4.5938 2.3438-9.75 5.9531-14.156 5.7656-29.25-7.125-131.06 0.9375-152.58 18.234-36.797-6.8438-52.219-13.641-58.312-17.297 7.6875-4.5938 30.188-14.203 91.734-22.688zm-221.68 219c8.1562-3.8438 16.828-6.0938 25.594-6.8906-7.4062 7.3125-13.641 14.344-18.656 21.047-7.0312 8.8125 0.09375 22.828 11.25 22.5 4.3125 0 8.5312-1.9688 11.25-5.625 6.7031-9.75 19.688-21.094 31.453-32.719 19.172 8.1094 39.094 16.5 58.5 24.562-47.438 31.031-9.75 59.156 3.375 35.766 0.98437-4.9688 13.031-14.484 30.281-21.656 12.422 5.25 24.938 10.5 37.406 15.891l-6.4688 8.4375c-7.2188 8.8125 0 22.922 11.156 22.594 9.4688 1.0312 16.594-13.594 21.797-19.453 27.375 12.094 49.312 22.312 74.344 35.062-8.8125 11.719-13.406 27.281-12.094 42.094 1.9688 18.422 29.297 15.984 28.031-2.4375-0.75-9.4688 3-20.109 9.8438-26.391 43.406 22.781 80.953 44.062 124.4 66.562 18.469 8.9062 21.094 20.719-5.4844 18.047-25.312-2.9062-50.25-6-70.688-8.625-1.875-8.5312 1.5938-11.156 7.4531-16.031 14.812-10.922-1.6875-33.469-16.594-22.734-12.234 9.5625-18.938 18.375-19.594 35.062-79.125-11.344-158.06-17.203-233.44-28.875-5.25-8.2031-7.125-17.625-5.7656-28.688 1.9688-18.375-25.359-21.75-27.938-3.4688-1.125 9.2812-0.70312 18.094 1.2188 26.391-16.875-3.1875-33.75-6.8438-51.094-10.922-43.688-9.75-64.781-48.281-58.312-83.344 4.9219-25.969 11.906-43.312 38.672-56.25z" fill="#06c"/>
 <path d="m469.45 1098.1c9.75 0.1875 16.969-10.453 12.984-19.453-2.9531-7.125-2.5781-15.047 1.3125-26.531 5.5781-17.625-20.484-26.344-26.672-8.9062-4.5938 11.156-11.531 52.781 12.375 54.938z" fill="#06c"/>
 <path d="m376.4 1084.9c8.3906 0.046875 15.094-7.5 13.969-15.797-2.7188-21.75-0.9375-38.625 5.25-50.203 8.4375-16.406-15.75-29.438-24.797-13.312-9 16.828-11.859 39.375-8.4375 66.984 0.89062 7.125 6.9375 12.328 13.969 12.328z" fill="#06c"/>
 <path d="m274.13 1061.7c8.9062 0.09375 15.891-8.625 13.688-17.297-2.4375-10.312-2.4375-21.094 0-32.016 1.3125-5.9531 3.375-12.188 6.2812-18.562 7.2656-16.969-17.812-28.219-25.688-11.484-8.8125 15.516-21.234 78.75 5.7656 79.359z" fill="#06c"/>
 <path d="m105 347.81c73.125 29.25 172.5 59.812 220.13 58.031 26.25 0.375 65.109 6.0938 106.12 15.469-4.7344 26.719 12.984 50.062 42.656 58.312 7.2656 14.062 19.922 25.5 37.734 34.172 5.4375 27.375 26.156 46.219 55.453 49.5 21.844 6.5625 53.859-81.469 62.344-106.88 14.25-5.7188 25.031-17.484 29.906-32.344 9.1875 15.75 18.469 30.562 27.891 44.344-37.641 62.016-38.109 115.59-1.3125 159.32 5.0156 6.2344 15.094 6.6562 20.672 0.9375 27.188-27.047 40.031-56.906 38.531-89.203 11.062 9.8906 34.031 35.344 46.406 36.281 12.938 0.46875 19.312-17.719 8.4844-25.312-16.547-12.469-32.812-27.656-48.75-45.422 28.312 9.1875 58.922 11.344 81.656-11.156 5.3438-5.2969 5.625-13.922 0.46875-19.5-49.641-54.375-94.219-46.734-125.9-26.25-6.3281-9.4688-12.562-19.312-18.797-29.719 16.781 3.4219 35.344 0.9375 50.062-6.5625 22.172-9.9375 19.969-28.594 9.0938-55.875-12.938-28.219-25.312-65.062-40.5-97.312-16.453-35.812-43.594-70.125-76.406-96.562-44.859-36.234-117.38-94.781-126.71-103.41-24.094-22.219-62.766-21.609-118.12 1.875-57.562 24.422-170.06 54.469-222.52 47.906-18.047-1.9688-22.031 25.219-3.4688 27.938 59.297 7.4062 177.74-24.844 237-49.922 43.547-18.469 73.219-20.812 88.078-7.0781 8.0625 7.5 67.219 55.547 128.11 104.62 29.531 23.812 53.812 54.516 68.484 86.438 9.6562 21 17.859 41.906 25.125 60.281 7.3125 20.297 18.469 40.547 20.672 55.312-16.594 9.4219-43.125 7.1719-49.922-5.1094-4.125-7.2656-10.453-20.672-17.156-34.875-15.094-31.922-32.156-68.062-46.406-84.609-30.938-34.781-76.219-87.656-145.4-73.969-20.25 3.4688-34.5 28.031-36.281 40.688-8.625 57.375 15.75 99.797 68.719 119.53 18.562 6.5625 29.766 8.0625 53.438 15.469 32.438 9.6562 58.5 18.609 66.375 22.828 13.5 7.2656 13.406 19.594 12.75 24.516-0.5625 10.031-11.625 22.828-25.125 21.469-11.438 0.46875-81.984-12.938-102.19-19.359-17.25-5.6719-35.25-10.688-54-15.281-125.53-30.75-164.95-7.6875-299.72-61.875l-37.828-14.062c-17.062-6.1875-27.281 19.547-9.8438 26.344zm592.82 248.53c-16.875-28.5-14.906-61.125 6.0938-100.59 19.266 38.062 17.25 70.688-6.0938 100.59zm102.8-114.75c-12.188 3.9375-32.438 2.625-68.812-14.859 22.969-10.734 45.375-5.8594 68.812 14.859zm-340.4-249.19c0.375-2.625 2.6719-6.9844 5.4375-10.688 11.156 21.234 27.656 53.719 31.734 66.609 2.4375 7.7812 1.4062 18.188-0.32812 26.859-30.656-16.359-42.75-43.594-36.844-82.781zm63.375 93c12.094-39.797-10.734-71.906-30.281-111.47 13.359 0.5625 26.531 3.9375 38.625 10.078 7.9688 18.281 24.094 57 27.281 73.125 0.09375 4.4062-4.0312 19.5-9.5156 35.344-11.438-3.3281-18.328-5.0625-26.109-7.125zm53.156 15.188c12.281-34.969 13.969-45.938 1.8281-76.125 25.875 24.281 39.562 59.062 58.781 98.719-13.031-7.8281-38.906-15.609-60.656-22.547zm-116.44 97.078c-1.4531-3.1875-1.7812-6.5625-1.5469-9.6094 3.6562 0.9375 7.2188 1.9219 10.688 2.9062-1.125 4.2188-2.0625 9.1875-2.4375 14.531-2.9062-2.1562-5.2969-4.7344-6.7031-7.875zm103.97 96.609c-37.406-7.2188-26.344-60.703-17.625-83.391 18.281 3.6562 38.062 7.125 51.797 8.5312-11.953 32.812-26.297 65.484-34.219 74.812zm-45.281-89.25c-3.0938 9.375-6.5625 21.938-8.25 35.438-13.688-9.375-18.656-27.75-14.344-41.391 5.9531 2.0156 14.062 3.9844 22.594 5.9531z" fill="#06c"/>
</svg>
