<?xml version="1.0" encoding="UTF-8"?>
<svg width="1200pt" height="1200pt" version="1.1" viewBox="0 0 1200 1200" xmlns="http://www.w3.org/2000/svg">
 <path d="m114.72 900.6c12.602 50.879 58.559 88.801 113.4 88.801 54.238 0 99.84-37.199 113.04-87.359h470.28c13.199 50.16 58.801 87.359 113.04 87.359 54.238 0 99.84-37.199 113.04-87.359h0.48047c47.762 0 87.359-34.801 95.16-80.398 0.96094-2.1602 1.4414-4.4414 1.4414-6.9609 0-0.60156-0.35938-1.1992-0.35938-1.9219 0.23828-2.5195 0.35938-4.9219 0.35938-7.4414v-267.6c0-49.559-40.32-90-89.879-90h-512.64c-43.922 0-85.68 16.559-117.6 46.559l-155.04 145.68h-23.281c-60.359 0-113.88 29.281-147.6 74.281-2.1602 1.8008-3.8398 3.9609-4.9219 6.6016-20.16 29.52-32.039 65.281-32.039 103.68 0.003906 37.555 26.523 69.117 63.121 76.078zm727.68-28.203c0-45.238 36.84-81.961 81.961-81.961 45.238 0 81.961 36.719 81.961 81.961 0 45.238-36.719 81.961-81.961 81.961-45.121 0-81.961-36.719-81.961-81.961zm-696.24 0c0-45.238 36.84-81.961 81.961-81.961s81.961 36.719 81.961 81.961c0 45.238-36.719 81.961-81.961 81.961-45.242 0-81.961-36.719-81.961-81.961zm-59.641-47.879c0-29.281 8.6406-56.641 23.281-79.68h29.16c9.6016 0 17.52-7.8008 17.52-17.52 0-9.2383-7.3203-16.68-16.441-17.281 26.039-21.84 59.52-35.16 96.121-35.16h30.238c4.4414 0 8.7617-1.6797 12-4.6797l160.08-150.36c25.441-23.879 58.801-37.078 93.719-37.078h512.64c30.359 0 54.961 24.719 54.961 54.961v259.44h-21.719c-9.6016 0-17.52 7.8008-17.52 17.52 0 9.6016 7.8008 17.52 17.52 17.52h15.359c-9.6016 19.68-29.16 33.48-52.199 34.559-3-61.801-54.121-111.24-116.64-111.24-62.641 0-113.88 49.559-116.64 111.6l-463.08-0.003906c-2.7617-62.039-54-111.6-116.64-111.6-61.441 0-111.72 47.52-116.52 107.76-15.117-6.7227-25.199-21.602-25.199-38.762z" fill="#2f67b2"/>
 <path d="m383.52 744.84h401.76c9.6016 0 17.52 7.8008 17.52 17.52 0 9.6016-7.8008 17.52-17.52 17.52h-401.76c-9.6016 0-17.52-7.8008-17.52-17.52s7.8008-17.52 17.52-17.52z" fill="#2f67b2"/>
 <path d="m663 692.4h384.36c9.6016 0 17.52-7.8008 17.52-17.52v-156.84c0-9.6016-7.8008-17.52-17.52-17.52h-384.36c-9.6016 0-17.52 7.8008-17.52 17.52v156.84c0 9.7227 7.8008 17.52 17.52 17.52zm17.398-156.84h349.44v121.92h-349.44z" fill="#2f67b2"/>
 <path d="m320.88 662.16c-5.2812 4.9219-6.9609 12.48-4.3203 19.199s9.1211 11.039 16.199 11.039h260.28c9.6016 0 17.52-7.8008 17.52-17.52v-156.84c0-9.6016-7.8008-17.52-17.52-17.52h-50.641c-31.559 0-61.68 11.879-84.719 33.48zm56.16-4.6797 104.52-97.922c16.559-15.48 38.16-24 60.84-24h33.238v121.92z" fill="#2f67b2"/>
 <path d="m864.84 872.4c0 32.879 26.762 59.641 59.641 59.641 32.879 0 59.641-26.762 59.641-59.641 0-32.879-26.762-59.641-59.641-59.641-32.879 0.003907-59.641 26.762-59.641 59.641zm34.922 0c0-13.68 11.16-24.719 24.719-24.719 13.68 0 24.719 11.039 24.719 24.719 0 13.68-11.039 24.719-24.719 24.719-13.68 0.003906-24.719-11.039-24.719-24.719z" fill="#2f67b2"/>
 <path d="m168.48 872.4c0 32.879 26.762 59.641 59.641 59.641s59.641-26.762 59.641-59.641c0-32.879-26.762-59.641-59.641-59.641-32.883 0.003907-59.641 26.762-59.641 59.641zm34.918 0c0-13.68 11.039-24.719 24.719-24.719 13.68 0 24.719 11.039 24.719 24.719 0 13.68-11.16 24.719-24.719 24.719-13.559 0.003906-24.719-11.039-24.719-24.719z" fill="#2f67b2"/>
 <path d="m802.8 325.56h-157.2c-9.6016 0-17.52-7.8008-17.52-17.52s7.8008-17.52 17.52-17.52h157.2c9.6016 0 17.52 7.8008 17.52 17.52 0 9.7227-7.9219 17.52-17.52 17.52z" fill="#2f67b2"/>
 <path d="m942.48 377.88h-244.56c-9.6016 0-17.52-7.8008-17.52-17.52 0-9.6016 7.8008-17.52 17.52-17.52h244.56c9.6016 0 17.52 7.8008 17.52 17.52s-7.8008 17.52-17.52 17.52z" fill="#2f67b2"/>
</svg>
