<?xml version="1.0" encoding="UTF-8"?>
<svg width="1200pt" height="1200pt" version="1.1" viewBox="0 0 1200 1200" xmlns="http://www.w3.org/2000/svg">
 <path d="m168 168c86.559-86.344 203.6-135.19 325.86-135.99 122.26-0.79688 239.93 46.512 327.61 131.72 87.68 85.203 138.34 201.47 141.04 323.7 2.6992 122.23-42.773 240.62-126.61 329.61l50.527 50.527c14.188-9.7227 31.324-14.188 48.453-12.629 17.129 1.5625 33.176 9.0547 45.375 21.18l166.74 166.74h-0.003906c13.762 13.832 21.484 32.551 21.484 52.062 0 19.508-7.7227 38.227-21.484 52.059l-0.10156 0.089844c-13.836 13.719-32.539 21.41-52.027 21.395s-38.176-7.7383-51.992-21.484l-166.74-166.74v0.003906c-12.129-12.199-19.617-28.25-21.18-45.383-1.5625-17.129 2.9062-34.27 12.629-48.457l-50.527-50.527c-89.008 83.742-207.37 129.14-329.55 126.41s-238.39-53.387-323.56-141.03-132.48-205.25-131.72-327.46c0.75781-122.21 49.527-239.22 135.78-325.8zm407.53 597.85v-205.89h-156.45v205.89zm-183.09 0v-214.74 0.003907c0.003906-4.0469 1.3945-7.9727 3.9414-11.117 0.38281-0.53516 0.80469-1.043 1.2617-1.5156 3.3477-3.3555 7.8945-5.2383 12.633-5.2305h174.03c4.7344-0.003906 9.2812 1.8789 12.633 5.2266 3.3477 3.3516 5.2305 7.8984 5.2266 12.637v214.74h117.2v-275.37l-222.06-170.29-222.05 170.3v275.37zm353.56-261.16c15.781 3.2383 32.137-1.707 43.477-13.148 1.25-1.2734 2.418-2.6172 3.5-4.0312 6.7422-8.7539 10.102-19.648 9.457-30.68-0.64063-11.031-5.2422-21.457-12.957-29.371-1.2422-1.2344-2.5586-2.3945-3.9414-3.4727l-279.86-218.86c-4.8047-3.9062-11.668-3.9727-16.547-0.16406l-279.97 219.02c-1.4023 1.0742-2.7344 2.2344-3.9922 3.4727-7.707 7.9141-12.309 18.34-12.953 29.371s2.707 21.922 9.4453 30.68c1.0859 1.4102 2.2539 2.7578 3.4961 4.0312 11.336 11.43 27.672 16.375 43.441 13.148v262.8c0.007812 6.625 2.6406 12.977 7.3281 17.664 4.6875 4.6836 11.043 7.3164 17.668 7.3203h447.43c6.625-0.007813 12.973-2.6406 17.66-7.3242 4.6836-4.6875 7.3164-11.035 7.3242-17.66zm-493.29-30.418 236.3-181.23c4.7812-3.8242 11.559-3.8906 16.418-0.16406l236.45 181.39c4.2422 3.3359 9.5508 5.0273 14.941 4.7617 5.2148-0.33594 10.121-2.5859 13.781-6.3164 0.49609-0.48828 0.96875-1.0039 1.4141-1.5391 2.7695-3.6719 4.1133-8.2227 3.7891-12.809-0.21094-4.5312-2.082-8.8242-5.2539-12.062-0.48047-0.48438-0.99219-0.94141-1.5273-1.3633l-271.73-212.67-271.79 212.63c-0.53125 0.42969-1.0312 0.89453-1.5039 1.3906-3.1719 3.2383-5.043 7.5312-5.2539 12.062-0.56641 5.3359 1.375 10.637 5.2539 14.348 3.6562 3.7344 8.5664 5.9805 13.781 6.3164 5.3867 0.26562 10.691-1.4258 14.93-4.7617zm642.23 487.1 166.74 166.74c8.8164 8.7578 20.734 13.68 33.16 13.695 12.426 0.011718 24.355-4.8828 33.191-13.617l0.19141-0.19141c8.7109-8.8438 13.586-20.766 13.566-33.18-0.023438-12.418-4.9375-24.32-13.68-33.137l-166.74-166.74v0.003907c-8.8164-8.7617-20.734-13.684-33.16-13.695-12.426-0.015625-24.355 4.8789-33.191 13.617l-0.19141 0.19141c-8.7188 8.8398-13.598 20.766-13.574 33.188 0.019531 12.418 4.9375 24.328 13.688 33.141zm-397.64-903.16c-101.58 0-200.02 35.223-278.55 99.664-78.523 64.445-132.27 154.12-152.09 253.75-19.82 99.629-4.4766 203.05 43.406 292.64 47.887 89.586 125.35 159.8 219.2 198.68 93.848 38.871 198.27 44.004 295.48 14.516 97.211-29.488 181.19-91.77 237.62-176.23 56.438-84.465 81.84-185.88 71.883-286.97-9.957-101.09-54.656-195.61-126.48-267.44-40.727-40.832-89.121-73.215-142.4-95.281-53.281-22.07-110.4-33.395-168.07-33.32z" fill="#2f67b2" fill-rule="evenodd"/>
</svg>
