<?xml version="1.0" encoding="UTF-8"?>
<svg width="1200pt" height="1200pt" version="1.1" viewBox="0 0 1200 1200" xmlns="http://www.w3.org/2000/svg">
 <path d="m125.87 542.13c-7.1992 0-12.801-5.6016-12.801-12.801v-422.4c0-16.801 6.668-32.801 18.668-44.801s27.734-18.668 44.801-18.668h156.8c8.5352 0 16.801 1.6016 24.801 5.0664 7.7344 3.1992 14.398 7.7344 20 13.602 12 12 18.668 28 18.668 44.801v56c0 7.1992-5.6016 12.801-12.801 12.801s-12.801-5.8672-12.801-12.801v-56c0-10.133-4-19.465-10.934-26.668-3.4648-3.4648-7.4648-6.1328-12-8s-9.6016-2.9336-14.668-2.9336h-157.06c-10.133 0-19.465 4-26.668 11.199-7.1992 7.1992-11.199 16.535-11.199 26.668v422.4c0 6.668-5.6016 12.535-12.801 12.535z" fill="#2f67b2"/>
 <path d="m463.2 378.13c-5.6016 0-10.934-3.7344-12.266-9.6016l-8.2656-31.465c-1.8672-6.9336 2.1328-13.867 9.0664-15.734 6.9336-1.8672 13.867 2.1328 15.734 9.0664l8.2656 31.465c1.8672 6.9336-2.1328 13.867-9.0664 15.734-1.3359 0.26953-2.4023 0.53516-3.4688 0.53516z" fill="#2f67b2"/>
 <path d="m482.4 452.8c-5.6016 0-10.934-3.7344-12.266-9.6016l-8.2656-31.465c-1.8672-6.9336 2.1328-13.867 9.0664-15.734s13.867 2.1328 15.734 9.0664l8.2656 31.465c1.8672 6.9336-2.1328 13.867-9.0664 15.734-1.0664 0.53516-2.1328 0.53516-3.4688 0.53516z" fill="#2f67b2"/>
 <path d="m410.4 378.13c-6.668 0-12.266-5.0664-12.801-11.734l-2.9336-31.465c-0.53516-6.9336 4.5352-13.332 11.734-13.867 6.9336-0.53516 13.332 4.5352 13.867 11.734l2.9336 31.465c0.53516 6.9336-4.5352 13.332-11.734 13.867-0.26562-0.26562-0.79688 0-1.0664 0z" fill="#2f67b2"/>
 <path d="m416.8 452.8c-6.668 0-12.266-5.0664-12.801-11.734l-2.9336-31.465c-0.53516-6.9336 4.5352-13.332 11.734-13.867 6.9336-0.53516 13.332 4.5352 13.867 11.734l2.9336 31.465c0.53516 6.9336-4.5352 13.332-11.734 13.867h-1.0664z" fill="#2f67b2"/>
 <path d="m357.6 378.13h-1.0664c-6.9336-0.53516-12.266-6.9336-11.734-13.867l2.9336-31.465c0.53516-6.9336 6.9336-12.266 13.867-11.734 6.9336 0.53516 12.266 6.9336 11.734 13.867l-2.9336 31.465c-0.53516 6.668-6.1367 11.734-12.801 11.734z" fill="#2f67b2"/>
 <path d="m351.2 452.8h-1.0664c-6.9336-0.53516-12.266-6.9336-11.734-13.867l2.9336-31.465c0.53516-6.9336 6.9336-12.266 13.867-11.734 6.9336 0.53516 12.266 6.9336 11.734 13.867l-2.9336 31.465c-0.80078 6.668-6.3984 11.734-12.801 11.734z" fill="#2f67b2"/>
 <path d="m304.8 378.13c-1.0664 0-2.1328-0.26562-3.1992-0.53516-6.9336-1.8672-10.934-8.8008-9.0664-15.734l8.2656-31.465c1.8672-6.9336 8.8008-10.934 15.734-9.0664 6.9336 1.8672 10.934 8.8008 9.0664 15.734l-8.2656 31.465c-1.6016 5.6016-6.9375 9.6016-12.535 9.6016z" fill="#2f67b2"/>
 <path d="m285.6 452.8c-1.0664 0-2.1328-0.26562-3.4648-0.53516-6.9336-1.8672-10.934-8.8008-9.0664-15.734l8.2656-31.465c1.8672-6.9336 8.8008-10.934 15.734-9.0664 6.9336 1.8672 10.934 8.8008 9.0664 15.734l-8.2656 31.465c-1.6055 5.8672-6.6719 9.6016-12.27 9.6016z" fill="#2f67b2"/>
 <path d="m498.67 290.4h-229.34c-6.9336 0-12.801-5.6016-12.801-12.801 0-70.133 57.066-127.46 127.46-127.46 70.398 0 127.46 57.066 127.46 127.46 0.003906 6.9375-5.8594 12.801-12.793 12.801zm-215.73-25.598h201.87c-6.3984-50.133-49.066-89.066-101.07-89.066s-94.402 38.934-100.8 89.066z" fill="#2f67b2"/>
 <path d="m867.2 1090.9h-534.4c-63.199 0-120.27-24.535-164.54-71.199-41.066-43.199-68.266-102.93-76-168l-28-228c-0.53516-3.7344 0.80078-7.1992 3.1992-10.133 2.3984-2.9336 5.8672-4.2656 9.6016-4.2656h1045.9c3.7344 0 7.1992 1.6016 9.6016 4.2656 2.3984 2.668 3.4648 6.3984 3.1992 10.133l-28 228c-8 65.066-34.934 124.8-76 168-44.535 46.398-101.34 71.199-164.54 71.199zm-775.73-456 26.133 213.6c15.465 127.46 104 216.8 215.2 216.8h534.13c111.2 0 199.73-89.066 215.2-216.8l26.133-213.6z" fill="#2f67b2"/>
 <path d="m1126.9 634.93h-1053.9c-32.801 0-59.199-26.668-59.199-59.199 0-32.535 26.668-59.199 59.199-59.199h1053.9c32.801 0 59.199 26.668 59.199 59.199s-26.398 59.199-59.199 59.199zm-1053.9-92.801c-18.668 0-33.602 15.199-33.602 33.602 0 18.398 15.199 33.602 33.602 33.602h1053.9c18.668 0 33.602-15.199 33.602-33.602 0-18.398-15.199-33.602-33.602-33.602z" fill="#2f67b2"/>
 <path d="m415.2 1156.5h-49.332c-25.066 0-45.602-20.535-45.602-45.602v-32.801c0-6.9336 5.6016-12.801 12.801-12.801h114.93c6.9336 0 12.801 5.6016 12.801 12.801v32.801c0 25.066-20.535 45.602-45.602 45.602zm-69.598-65.602v20c0 10.934 9.0664 20 20 20h49.332c10.934 0 20-9.0664 20-20v-20z" fill="#2f67b2"/>
 <path d="m834.4 1156.5h-49.332c-25.066 0-45.602-20.535-45.602-45.602v-32.801c0-6.9336 5.6016-12.801 12.801-12.801h114.93c6.9336 0 12.801 5.6016 12.801 12.801v32.801c0 25.066-20.535 45.602-45.602 45.602zm-69.598-65.602v20c0 10.934 9.0664 20 20 20h49.332c10.934 0 20-9.0664 20-20v-20z" fill="#2f67b2"/>
</svg>
