<?xml version="1.0" encoding="UTF-8"?>
<svg width="1200pt" height="1200pt" version="1.1" viewBox="0 0 1200 1200" xmlns="http://www.w3.org/2000/svg">
 <path d="m712.18 777.55-11.238 19.469 15.926 9.1953c0.59375 0.28906 1.1719 0.62109 1.7266 0.99609l201.12 116.11 11.238-19.465c-72.926-42.105-145.85-84.203-218.77-126.31zm33.051-14.027-20.676-11.902c-13.168-7.5977-28.051-2.8477-36.086 9.6562l-13.445 23.348c-7.8398 13.582-2.4727 29.062 10.77 36.699l-89.555 75.973v-174.12c0-7.9375-6.4375-14.371-14.375-14.371h-246.55c-7.9375 0-14.375 6.4375-14.375 14.371v388.07h-148.99v-658.52h573.28v310.81zm28.746-310.81v327.41l20.008 11.551c68.609-118.84 255.72-442.92 255.7-442.94 13.332-23.09 43.008-31.023 66.094-17.695 23.023 13.297 31.055 43.051 17.75 66.094-85.242 147.64-170.48 295.29-255.72 442.93l68.461 39.527c6.3359 3.0586 11.465 9.9062 13.262 16.605 1.582 5.9023 1.1094 12.391-1.7305 18.273-2.793 6.8789-10.371 18.109-14.375 25.043-3.6719 6.3594-9.5547 10.625-16.062 12.367-7.6836 2.0586-14.398 0.59766-21.156-3.3086l-30.473 167.53c-2.9648 16.367-18.797 26.289-35.203 23.316-3.7891-0.6875-7.5742-2.0312-11.164-4.1094l-55.383-32.008v22.312c0 7.9375-6.4375 14.375-14.375 14.375l-602.02 0.003907c-7.9375 0-14.375-6.4375-14.375-14.375v-672.9h-68.801c-13.574 0-19.418-17.043-9.1016-25.496l383.41-363.24c5.5625-5.2891 14.262-5.2344 19.758 0l384.18 363.98c9.4414 8.9805 2.8867 24.723-9.8789 24.723l-68.801 0.039063zm-424.29 658.52h217.8v-127.16c-0.44531-0.25781-4.9727-2.918-5.0078-2.8594-3.6094-2.0859-6.6562-4.6758-9.1094-7.5664-8.25-9.7305-10.188-23.469-3.7109-34.68 1.5977-2.7695 3.6914-5.3125 6.2773-7.5l11.555-9.8047v-184.14h-217.8v373.7zm246.55 0h148.99v-24.535l-148.99-86.02v110.56zm246.7-1.1719c-88.699-51.207-177.39-102.42-266.09-153.63 0 0.003906-2.0508-1.5273-2.3672-3.0703 45.895-38.941 91.797-77.875 137.7-116.81l167.69 96.812-32.305 177.61c-1.5898 0.87109-3.2227-0.16016-4.6211-0.91016zm-36.172-686.1-348.17-329.86-348.17 329.86h696.34zm267.71-60.875-42.055 72.836 34.246 19.773 42.047-72.832c5.3867-9.332 2.0859-21.66-7.2383-27.043-9.3203-5.3477-21.629-2.0508-27.004 7.2617zm-56.391 97.672 34.246 19.77-199.31 345.22-34.246-19.77zm-246.72 438.2c9.4375-16.297 34.25-1.9258 24.812 14.371l-61.262 106.11c-9.4375 16.301-34.25 1.9297-24.812-14.371zm-38.41-27.133c13.879-12.699 33.195 8.4023 19.312 21.109l-94.863 86.707c-13.879 12.699-33.195-8.4023-19.312-21.109zm77.938 54.992c4.0625-18.461 32.137-12.289 28.074 6.1758l-27.66 125.51c-4.0625 18.461-32.137 12.289-28.074-6.1758zm-384-47.152c-24.688 0-44.715 20.023-44.715 44.715 0 24.691 20.023 44.715 44.715 44.715 24.688 0 44.715-20.023 44.715-44.715 0-24.691-20.023-44.715-44.715-44.715zm0 28.746c-8.8242 0-15.965 7.1406-15.965 15.965 0 8.8242 7.1406 15.965 15.965 15.965s15.965-7.1406 15.965-15.965c0-8.8242-7.1406-15.965-15.965-15.965zm46.078-402.22c0-18.906-28.746-18.906-28.746 0 0 33.07-27.109 60.18-60.18 60.18-18.906 0-18.906 28.746 0 28.746 33.07 0 60.18 27.109 60.18 60.18 0 18.906 28.746 18.906 28.746 0 0-16.535 6.7734-31.578 17.688-42.492 10.914-10.914 25.957-17.688 42.492-17.688 18.906 0 18.906-28.746 0-28.746-33.07 0-60.18-27.109-60.18-60.18zm-14.375 48.344c-6.8203 10.461-15.75 19.391-26.211 26.211 10.461 6.8203 19.391 15.75 26.211 26.211 3.4062-5.2266 7.3477-10.078 11.742-14.473s9.2461-8.332 14.473-11.738c-10.461-6.8203-19.391-15.75-26.211-26.211zm462.74-372.75c0-18.906-28.746-18.906-28.746 0 0 33.07-27.109 60.18-60.18 60.18-18.906 0-18.906 28.746 0 28.746 33.07 0 60.18 27.109 60.18 60.18 0 18.906 28.746 18.906 28.746 0 0-33.07 27.109-60.18 60.18-60.18 18.906 0 18.906-28.746 0-28.746-33.07 0-60.18-27.109-60.18-60.18zm-14.375 48.344c-6.8203 10.461-15.75 19.391-26.211 26.211 10.461 6.8203 19.391 15.75 26.211 26.211 6.8203-10.461 15.75-19.391 26.211-26.211-10.461-6.8203-19.391-15.75-26.211-26.211z" fill="#2f67b2" fill-rule="evenodd"/>
</svg>
